<svg xmlns="http://www.w3.org/2000/svg" viewBox="0 0 100 100" fill="none">
  <rect width="100" height="100" rx="20" fill="#0d1f0d" />
  <path d="M50 80 C 50 80, 20 60, 20 30 C 20 15, 40 10, 50 25 C 60 10, 80 15, 80 30 C 80 60, 50 80, 50 80 Z" fill="#ffd700" />
  <path d="M50 80 C 50 80, 20 60, 20 30 C 20 15, 40 10, 50 25 C 60 10, 80 15, 80 30 C 80 60, 50 80, 50 80 Z" fill="url(#grad)" />
  <defs>
    <linearGradient id="grad" x1="0" y1="0" x2="1" y2="1">
      <stop offset="0%" stop-color="#4caf50" stop-opacity="0.8" />
      <stop offset="100%" stop-color="#2e7d32" stop-opacity="0.9" />
    </linearGradient>
  </defs>
  <path d="M50 25 L 50 75" stroke="#1b4d1b" stroke-width="4" stroke-linecap="round" />
  <path d="M50 45 L 35 35" stroke="#1b4d1b" stroke-width="4" stroke-linecap="round" />
  <path d="M50 55 L 65 45" stroke="#1b4d1b" stroke-width="4" stroke-linecap="round" />
</svg>
